<svg width="78" height="18" viewBox="0 0 78 18" fill="none" xmlns="http://www.w3.org/2000/svg">
<path fill-rule="evenodd" clip-rule="evenodd" d="M8.92505 5.31212H9.40521H10.6004H18.9806V2.97407C18.9806 1.42772 17.7912 0.172852 16.3231 0.172852H6.26752V2.50967C6.26752 4.05725 7.45696 5.31212 8.92505 5.31212ZM2.65639 17.8265H3.13654H4.33174H12.712V15.4897C12.712 13.9421 11.5225 12.6885 10.0556 12.6885H0V15.0253C0 16.5716 1.18944 17.8265 2.65639 17.8265ZM9.42919 11.5767C9.33592 11.5767 9.24726 11.5829 9.1609 11.5928H0V9.21148C0 7.66513 1.18944 6.41026 2.65639 6.41026H10.1258C10.1323 6.41026 10.1379 6.40994 10.1433 6.40963C10.1485 6.40932 10.1536 6.40903 10.1592 6.40903H18.9781V8.77549C18.9781 10.3218 17.7887 11.5767 16.3217 11.5767H9.42919Z" fill="#177EFF"/>
<path d="M33.4926 5.69022L28.8652 11.9852H33.6914V13.9551H25.9448V12.5646L30.5926 6.26962H26.1437V4.29965H33.4926V5.69022Z" fill="#177EFF"/>
<path d="M50.8201 0.188869V2.19747C49.2569 2.06913 48.4759 2.70585 48.4759 4.10888V4.30201H50.8201V6.31061H48.4759V13.9575H46.3305V6.30937H44.8212V4.30077H46.3305V4.10763C46.3305 2.7694 46.7138 1.75887 47.4828 1.07604C48.2507 0.394464 49.3623 0.0979085 50.8201 0.188869Z" fill="#177EFF"/>
<path d="M57.0216 4.29816V6.30676H54.5587V10.9407C54.5587 11.3395 54.651 11.6261 54.8366 11.8005C55.0223 11.9737 55.2966 12.0709 55.6608 12.0896C56.0249 12.1083 56.4777 12.1058 57.0216 12.0796V13.9524C55.3793 14.1455 54.2018 14.0072 53.4866 13.5375C52.7715 13.0677 52.4146 12.2017 52.4146 10.9407V6.30676V4.29816V2.21355L54.5587 1.59552V4.2994H57.0216V4.29816Z" fill="#177EFF"/>
<path d="M61.1107 4.29965H58.9653V13.9551H61.1107V4.29965Z" fill="#177EFF"/>
<path d="M68.799 0.188869V2.19747C67.2358 2.06913 66.4548 2.70585 66.4548 4.10888V4.30201H68.799V6.31061H66.4548V13.9575H64.3094V6.30937H62.8V4.30077H64.3094V4.10763C64.3094 2.7694 64.6927 1.75887 65.4617 1.07604C66.2296 0.394464 67.3412 0.0979085 68.799 0.188869Z" fill="#177EFF"/>
<path d="M73.1745 11.3085L75.7164 4.29962H78.0007L74.1879 14.2641C73.2344 16.7612 71.6185 17.9461 69.3413 17.8166V15.8665C70.0038 15.9051 70.5404 15.7706 70.9501 15.4616C71.3598 15.1525 71.7047 14.6566 71.9826 13.975L72.0821 13.7819L67.8704 4.30087H70.2146L73.1745 11.3085Z" fill="#177EFF"/>
<path d="M61.1107 3.20897C61.1107 3.20897 61.506 3.20897 60.598 3.20897C59.69 3.20897 58.9653 2.54234 58.9653 1.5206C58.9653 0.498855 58.9653 0.977331 58.9653 0.977331H61.1107V3.20897Z" fill="#177EFF"/>
<path d="M39.2456 4.0506C36.5491 4.0506 34.363 6.3246 34.363 9.12941C34.363 11.9342 36.5491 14.2082 39.2456 14.2082C41.942 14.2082 44.1281 11.9342 44.1281 9.12941C44.1281 6.3246 41.942 4.0506 39.2456 4.0506ZM39.2456 12.0264C37.7075 12.0264 36.4605 10.7293 36.4605 9.12941C36.4605 7.52951 37.7075 6.2324 39.2456 6.2324C40.7836 6.2324 42.0306 7.52951 42.0306 9.12941C42.0306 10.7293 40.7836 12.0264 39.2456 12.0264Z" fill="#177EFF"/>
</svg>
